<?xml version="1.0" standalone="no"?><!DOCTYPE svg PUBLIC "-//W3C//DTD SVG 1.1//EN" "http://www.w3.org/Graphics/SVG/1.1/DTD/svg11.dtd"><svg t="1728205570234" class="icon" viewBox="0 0 1024 1024" version="1.1" xmlns="http://www.w3.org/2000/svg" p-id="24314" xmlns:xlink="http://www.w3.org/1999/xlink" width="200" height="200"><path d="M370.176 216.80128h401.92c55.296 0 100.352 45.056 100.352 100.352v435.712c0 55.296-45.056 100.352-100.352 100.352H370.176c-55.296 0-100.352-45.056-100.352-100.352v-435.712c0-55.296 45.056-100.352 100.352-100.352z" fill="#CAE4FF" p-id="24315"></path><path d="M977.408 325.85728v-32.256l-259.072-259.072H265.216c-71.68 0-129.536 57.856-129.536 129.536v712.192c0 71.68 57.856 129.536 129.536 129.536h582.656c71.68 0 129.536-57.856 129.536-129.536v-550.4z m-259.072-161.792l129.536 129.536h-129.536v-129.536z m194.048 712.192c0 35.84-29.184 64.512-64.512 64.512H265.216c-35.84 0-64.512-29.184-64.512-64.512v-712.192c0-35.84 29.184-64.512 64.512-64.512h388.608v226.816c0 17.92 14.336 32.256 32.256 32.256h226.816v517.632z m-516.096-349.696c-18.944-19.456-49.664-19.456-68.608-1.024-19.456 18.944-19.456 49.664-1.024 68.608l1.024 1.024 114.688 114.688c10.24 4.608 17.92 12.8 23.04 23.04 18.944 18.944 49.664 18.944 68.608 0l251.904-251.904c18.944-19.456 18.432-50.176-1.024-68.608-18.944-18.432-48.64-18.432-67.584 0l-217.6 217.6-103.424-103.424z" fill="#0972E7" p-id="24316"></path></svg>