<?xml version="1.0" standalone="no"?><!DOCTYPE svg PUBLIC "-//W3C//DTD SVG 1.1//EN" "http://www.w3.org/Graphics/SVG/1.1/DTD/svg11.dtd"><svg t="1728283356513" class="icon" viewBox="0 0 1024 1024" version="1.1" xmlns="http://www.w3.org/2000/svg" p-id="4645" xmlns:xlink="http://www.w3.org/1999/xlink" width="200" height="200"><path d="M950.857143 109.714286 73.142857 109.714286c-20.214857 0-36.571429 16.356571-36.571429 36.571429l0 658.285714c0 20.214857 16.356571 36.571429 36.571429 36.571429l351.107657 0L402.285714 914.285714l-54.857143 0c-10.106514 0-18.285714 8.1792-18.285714 18.285714s8.1792 18.285714 18.285714 18.285714l329.142857 0c10.106514 0 18.285714-8.1792 18.285714-18.285714s-8.1792-18.285714-18.285714-18.285714l-54.857143 0-21.9648-73.142857L950.857143 841.142857c20.214857 0 36.571429-16.356571 36.571429-36.571429L987.428571 146.285714C987.428571 126.070857 971.072 109.714286 950.857143 109.714286zM512 804.571429c-20.214857 0-36.571429-16.356571-36.571429-36.571429s16.356571-36.571429 36.571429-36.571429 36.571429 16.356571 36.571429 36.571429S532.214857 804.571429 512 804.571429zM109.714286 694.857143 109.714286 182.857143l804.571429 0 0 512L109.714286 694.857143z" fill="#F69661" p-id="4646"></path></svg>