<?xml version="1.0" standalone="no"?><!DOCTYPE svg PUBLIC "-//W3C//DTD SVG 1.1//EN" "http://www.w3.org/Graphics/SVG/1.1/DTD/svg11.dtd"><svg t="1731332065132" class="icon" viewBox="0 0 1053 1024" version="1.1" xmlns="http://www.w3.org/2000/svg" p-id="12788" xmlns:xlink="http://www.w3.org/1999/xlink" width="246.796875" height="240"><path d="M499.63064346 403.76421406l-68.47826046-11.78929775c-12.54180586-2.13210703-25.96153887 14.42307656-29.78678935 36.7474913l-1.06605352 6.17683976c-10.97408057-14.10953203-19.8787623-33.73745801-19.8787623-60.23202364 0-28.34448135 6.27090293-58.31939795 12.41638769-87.29096924 6.52173925-31.22909737 13.41973213-63.58695645 13.41973214-96.69732451a128.67892998 128.67892998 0 0 0-257.35785909 0v648.80330273A122.98808497 122.98808497 0 0 0 62 957.03030898h245.88210674a122.97240791 122.97240791 0 0 0-88.30999161-117.97136279V190.80434815a58.00585254 58.00585254 0 1 1 116.13712412 0c0 25.71070254-5.76923115 53.05183945-11.91471591 82.02341073-6.89799375 32.48327724-14.10953203 66.09531797-14.10953203 101.90217393 0 77.69648848 45.27591943 121.12249131 76.4736627 141.83214873l-5.86329434 34.12939044c-3.88795958 22.32441474 3.26086963 42.32859521 15.92809365 44.52341132l68.47826045 11.78929688c12.54180586 2.13210703 25.96153887-14.42307656 29.78678936-36.74749132l20.94481669-121.90635438c3.88795958-22.38712383-3.26086963-42.45401338-15.80267636-44.58612042z" fill="#1296db" p-id="12789"></path><path d="M931.17851211 351.0886291v483.48662168a127.39339424 127.39339424 0 0 1-127.28365401 127.42474922H492.71697354c-34.74080244 0-66.84782607-14.42307656-87.90238301-39.63210732s-29.78678935-59.19732422-23.51588642-93.43645489l78.51170566-442.60033447c11.52278438-64.71571904 71.61371279-121.27926445 136.83110361-128.80434727l203.16157998-23.51588642a116.23118731 116.23118731 0 0 1 131.43812695 117.14046855zM520.79494151 826.92474893l82.71321063-399.77006661a27.70171435 27.70171435 0 0 0-21.44648847-32.64005039 27.70171435 27.70171435 0 0 0-32.64005039 21.44648848l-82.71321065 399.7700666a27.70171435 27.70171435 0 0 0 21.44648849 32.64005039 27.70171435 27.70171435 0 0 0 32.64005039-21.44648847z m299.31020068-460.535117a36.44962383 36.44962383 0 1 0 36.44962383 36.44962383 36.44962383 36.44962383 0 0 0-36.44962383-36.44962383z" fill="#1296db" p-id="12790"></path><path d="M987.8674748 892.00104541c0-0.34489951 0-0.67412198-0.07838613-1.01902236 0-1.06605352-0.18812724-2.11642998-0.31354541-3.13545147 0-0.28219043-0.07838614-0.56438086-0.10974024-0.84657129a65.59364531 65.59364531 0 0 0-2.85326102-12.08716612 0.87792627 0.87792627 0 0 1 0-0.18812724 65.51525917 65.51525917 0 0 0-5.12646328-11.2876251c0-0.15677227-0.1724502-0.31354541-0.26651339-0.47031767-0.65844492-1.1287626-1.3325669-2.24184815-2.06939794-3.32357871v-0.09406318c-0.73683106-1.09740762-1.56772617-2.16346114-2.30455723-3.13545147l-0.56438086-0.721154c-0.61141289-0.76818604-1.22282578-1.56772617-1.86559365-2.27320225l-0.79954014-0.9249583c-0.70547695-0.79954013-1.42663008-1.56772617-2.16346202-2.32023428l-0.47031767-0.50167178c-0.87792627-0.87792627-1.78720752-1.72449844-2.71216494-2.55539355l-0.94063623-0.79954013c-0.70547695-0.62708994-1.44230801-1.22282578-2.19481523-1.81856163l-0.84657218-0.65844492c-1.05037646-0.79954013-2.11642998-1.56772617-3.13545146-2.32023428-1.11308555-0.7525081-2.27320224-1.45798506-3.44899687-2.14778408l-0.53302676-0.31354541a66.81647197 66.81647197 0 0 0-11.41304327-5.14214033l-0.32922245-0.10974024a66.70673086 66.70673086 0 0 0-8.08946544-2.14778496h-0.17244931c-1.20714873-0.23515928-2.41429746-0.42328565-3.63712412-0.59573584l-0.97198946-0.12541816-2.96300214-0.28219043-1.11308467-0.07838613c-1.20714873 0-2.42997451-0.12541816-3.65280117-0.12541817h-0.45464062c-1.23850371 0-2.46132949 0-3.66847823 0.12541817l-1.09740849 0.07838613c-1.00334443 0.07838614-1.99101182 0.1724502-2.97867833 0.29786836l-0.95631328 0.10974023c-1.23850371 0.1724502-2.46132949 0.37625449-3.68415527 0.61141377h-0.12541817a64.700042 64.700042 0 0 0-8.13649658 2.16346113l-0.25083633 0.07838614a66.18938115 66.18938115 0 0 0-11.50710644 5.18917236l-0.43896357 0.25083633a67.92955664 67.92955664 0 0 0-6.77257471 4.53072744l-0.75250898 0.59573584c-0.78386309 0.62708994-1.56772617 1.25418076-2.30455635 1.89694775l-0.86224922 0.75250811c-0.94063535 0.83089424-1.86559365 1.69314346-2.74351993 2.58674766a4.81291787 4.81291787 0 0 0-0.39193154 0.40760859c-0.76818604 0.78386309-1.56772617 1.56772617-2.2575252 2.41429834l-0.76818602 0.87792627c-0.64276787 0.76818604-1.28553487 1.56772617-1.89694776 2.33591133-0.1724502 0.21948135-0.36057656 0.43896357-0.53302676 0.67412197-0.79954013 1.05037646-1.56772617 2.13210703-2.32023428 3.24519257-0.73683106 1.09740762-1.42663008 2.22617021-2.085075 3.37060987l-0.26651338 0.43896357a65.60932237 65.60932237 0 0 0-5.11078623 11.30330216 1.19147168 1.19147168 0 0 0 0 0.17245019 66.07964003 66.07964003 0 0 0-2.86893808 12.10284316c0 0.28219043 0 0.56438086-0.10974111 0.84657129-0.12541816 1.05037646-0.23515928 2.10075293-0.31354454 3.13545147 0 0.34489951 0 0.67412198-0.078387 1.01902236 0 1.3325669-0.12541816 2.66513378-0.12541729 4.01337773 0 1.34824395 0 2.68081084 0.12541729 4.01337774 0 0.34489951 0 0.68979902 0.078387 1.03469941 0.07838614 1.05037646 0.18812724 2.10075293 0.31354454 3.13545147 0 0.28219043 0.07838614 0.56438086 0.10974111 0.84657129a66.07964003 66.07964003 0 0 0 2.86893808 12.10284316 0.56438086 0.56438086 0 0 0 0 0.1724502 65.60932237 65.60932237 0 0 0 5.11078623 11.30330214c0.09406318 0.14109521 0.1724502 0.29786748 0.26651338 0.45464063 0.65844492 1.14443965 1.34824395 2.2575252 2.085075 3.35493281 0.73683106 1.09740762 1.56772617 2.17913906 2.32023428 3.22951553l0.53302676 0.68979902c0.61141289 0.78386309 1.25418076 1.56772617 1.89694776 2.32023428l0.76818602 0.89360332c0.73683106 0.81521719 1.47366211 1.56772617 2.24184727 2.38294336l0.40760947 0.43896358c0.87792627 0.87792627 1.80288457 1.74017549 2.74351993 2.57106972 0.28219043 0.26651338 0.58005878 0.50167266 0.86224922 0.75250898 0.7525081 0.64276787 1.56772617 1.28553487 2.28887929 1.88127071l0.76818604 0.61141289a67.92955664 67.92955664 0 0 0 6.77257471 4.53072744l0.43896357 0.25083633a65.40551807 65.40551807 0 0 0 11.4914294 5.18917236l0.29786836 0.09406318a65.95422276 65.95422276 0 0 0 8.08946454 2.14778409h0.2038043c1.19147168 0.23515928 2.38294336 0.42328565 3.59009209 0.59573584l1.01902149 0.12541817c0.9563124 0.10974112 1.92830273 0.2038043 2.90029306 0.28219042l1.1601167 0.09406406c1.1601167 0 2.33591133 0.10974112 3.51170595 0.10974024h0.54870382c1.17579463 0 2.33591133 0 3.49602891-0.10974024l1.17579375-0.09406406q1.45798506-0.10974112 2.86893808-0.28219042l1.05037646-0.12541817c1.19147168-0.1724502 2.36726631-0.36057656 3.54306007-0.58005879h0.25083632a68.33716523 68.33716523 0 0 0 8.05811045-2.13210703l0.36057656-0.12541729a65.9698998 65.9698998 0 0 0 11.38168917-5.14214121l0.56438086-0.31354453c1.1601167-0.68979902 2.30455723-1.39527598 3.41764276-2.13210703 1.09740762-0.73683106 2.16346114-1.56772617 3.13545147-2.30455723l0.86224922-0.67412197 2.17913819-1.80288457 0.94063622-0.81521718c0.9249583-0.83089424 1.83423955-1.67746641 2.69648789-2.53971563l0.50167178-0.53302676c0.73683106-0.73683106 1.44230801-1.56772617 2.14778497-2.28888018l0.81521718-0.94063535q0.94063535-1.11308555 1.83423867-2.2575252l0.58005879-0.72115399c0.79954013-1.05037646 1.56772617-2.13210703 2.30455723-3.22951466v-0.09406318c0.72115401-1.08173057 1.39527598-2.19481612 2.05372089-3.30790166l0.28219044-0.48599472a65.2487458 65.2487458 0 0 0 5.09510829-11.27194805s0-0.14109521 0.07838614-0.20380518a65.59364531 65.59364531 0 0 0 2.85326104-12.08716523c0-0.28219043 0-0.56438086 0.1097411-0.84657217 0.12541816-1.05037646 0.23515928-2.10075293 0.31354542-3.13545147 0-0.34489951 0-0.68979902 0.07838613-1.03469853 0-1.3325669 0.12541816-2.66513378 0.12541816-4.01337773 0.15677227-1.39527598 0.10974112-2.72784287 0.03135411-4.06040977z" fill="#1296db" p-id="12791"></path></svg>