<?xml version="1.0" standalone="no"?><!DOCTYPE svg PUBLIC "-//W3C//DTD SVG 1.1//EN" "http://www.w3.org/Graphics/SVG/1.1/DTD/svg11.dtd"><svg t="1728100319054" class="icon" viewBox="0 0 1024 1024" version="1.1" xmlns="http://www.w3.org/2000/svg" p-id="17964" xmlns:xlink="http://www.w3.org/1999/xlink" width="200" height="200"><path d="M74.752 672.768l209.408-158.208-209.408-162.816zM940.032 221.696H83.968c-9.216 0-13.824-9.216-13.824-13.824V142.336c0-9.216 9.216-13.824 13.824-13.824h856.064c9.216 0 13.824 9.216 13.824 13.824v65.024c0 9.728-4.608 14.336-13.824 14.336M940.032 905.728H83.968c-9.216 0-13.824-9.216-13.824-13.824v-69.632c0-9.216 9.216-13.824 13.824-13.824h856.064c9.216 0 13.824 9.216 13.824 13.824v65.024c0 9.216-4.608 18.432-13.824 18.432M940.032 449.536h-512c-9.216 0-13.824-9.216-13.824-13.824V370.688c0-9.216 9.216-13.824 13.824-13.824h512c9.216 0 13.824 9.216 13.824 13.824v65.024c0 9.216-4.608 13.824-13.824 13.824M940.032 677.888h-512c-9.216 0-13.824-9.216-13.824-13.824v-65.536c0-9.216 9.216-13.824 13.824-13.824h512c9.216 0 13.824 9.216 13.824 13.824v65.024c0 4.608-4.608 14.336-13.824 14.336" fill="#1296db" p-id="17965"></path></svg>