<?xml version="1.0" standalone="no"?><!DOCTYPE svg PUBLIC "-//W3C//DTD SVG 1.1//EN" "http://www.w3.org/Graphics/SVG/1.1/DTD/svg11.dtd"><svg t="1731331435787" class="icon" viewBox="0 0 1080 1024" version="1.1" xmlns="http://www.w3.org/2000/svg" p-id="4389" xmlns:xlink="http://www.w3.org/1999/xlink" width="253.125" height="240"><path d="M158.276267 966.121244c-97.848889-35.805867-158.276267-85.333333-158.276267-139.946666a81.174756 81.174756 0 0 1 13.124267-43.383467 128.568889 128.568889 0 0 1 10.24-14.125511 40.721067 40.721067 0 0 1 52.906666-7.964444c42.461867 25.941333 100.750222 48.008533 170.046578 64.654222a1294.267733 1294.267733 0 0 0 294.343111 31.943111 1292.458667 1292.458667 0 0 0 294.155378-31.943111c69.102933-16.645689 127.391289-38.684444 169.853156-64.654222a40.7552 40.7552 0 0 1 52.906666 7.964444 112.492089 112.492089 0 0 1 10.24 14.125511 81.174756 81.174756 0 0 1 13.129956 43.360711c0 54.613333-60.416 104.146489-158.276267 139.946667S689.641244 1024 540.444444 1024s-284.3136-22.0672-382.168177-57.878756zM540.444444 820.741689a38.764089 38.764089 0 0 1-38.599111-38.712889v-64.284444H440.263111a38.769778 38.769778 0 0 1-38.599111-38.684445 38.775467 38.775467 0 0 1 38.599111-38.724267h61.576533v-22.454044H440.263111a38.775467 38.775467 0 0 1-38.599111-38.712889 38.769778 38.769778 0 0 1 38.599111-38.684444h25.867378l-49.607111-49.749334a38.872178 38.872178 0 0 1 0-54.778311 38.599111 38.599111 0 0 1 54.613333 0L540.387556 505.685333l69.5296-69.728711a38.599111 38.599111 0 0 1 54.613333 0 38.872178 38.872178 0 0 1 0 54.778311L614.968889 540.444444h25.480533a38.769778 38.769778 0 0 1 38.599111 38.684445 38.610489 38.610489 0 0 1-38.411377 38.712889h-61.5936v22.454044h61.383111a38.775467 38.775467 0 0 1 38.599111 38.724267 38.610489 38.610489 0 0 1-38.411378 38.684444h-61.570844v64.068267A38.815289 38.815289 0 0 1 540.444444 820.753067z m275.239823-110.330311a38.769778 38.769778 0 0 1-38.599111-38.712889 38.826667 38.826667 0 0 1 31.459555-38.115556 640.108089 640.108089 0 0 0 101.910756-32.130844 295.458133 295.458133 0 0 0 70.070044-39.099733 38.587733 38.587733 0 0 1 54.237867 6.576355 38.855111 38.855111 0 0 1-6.570667 54.397156 379.215644 379.215644 0 0 1-88.206222 49.749333 741.535289 741.535289 0 0 1-115.615289 36.408889l-4.243911 0.967111z m-554.723556 0l-4.443022-0.967111a741.535289 741.535289 0 0 1-115.615289-36.408889 379.568356 379.568356 0 0 1-88.206222-49.749334A38.8608 38.8608 0 0 1 46.125511 568.888889a38.582044 38.582044 0 0 1 54.237867-6.576356 303.348622 303.348622 0 0 0 70.070044 39.099734 670.845156 670.845156 0 0 0 102.678756 32.329955 38.627556 38.627556 0 0 1 30.72 37.944889 38.365867 38.365867 0 0 1-38.411378 38.712889z m517.085867-187.960889a38.684444 38.684444 0 0 1 28.757333-46.461156 660.48 660.48 0 0 0 103.452445-32.517689 295.822222 295.822222 0 0 0 70.070044-39.099733 38.564978 38.564978 0 0 1 54.232178 6.576356 38.843733 38.843733 0 0 1-6.559289 54.397155 379.983644 379.983644 0 0 1-88.206222 49.749334 741.7344 741.7344 0 0 1-115.615289 36.408888 39.543467 39.543467 0 0 1-8.493511 0.9728 38.684444 38.684444 0 0 1-37.637689-30.020266z m-521.722311 29.013333a747.958044 747.958044 0 0 1-115.615289-36.408889 379.568356 379.568356 0 0 1-88.206222-49.749333 38.849422 38.849422 0 0 1-6.570667-54.397156 38.576356 38.576356 0 0 1 54.237867-6.576355 303.832178 303.832178 0 0 0 70.058666 39.099733 654.5408 654.5408 0 0 0 103.463822 32.517689 38.633244 38.633244 0 0 1 28.757334 46.461156 37.961956 37.961956 0 0 1-37.250845 30.0032 48.105244 48.105244 0 0 1-8.874666-0.927289zM386.417778 387.697778A1116.256711 1116.256711 0 0 1 249.742222 364.885333a745.102222 745.102222 0 0 1-115.8144-36.408889 356.4544 356.4544 0 0 1-83.7632-47.041422 155.306667 155.306667 0 0 1-37.250844-40.066844A82.648178 82.648178 0 0 1 0 198.024533c0-54.613333 60.416-104.146489 158.276267-139.946666S391.241956 0 540.444444 0s284.307911 22.260622 382.168178 58.066489S1080.888889 143.433956 1080.888889 198.024533a81.197511 81.197511 0 0 1-13.129956 43.360711 155.471644 155.471644 0 0 1-37.250844 40.066845 352.597333 352.597333 0 0 1-83.7632 47.041422 752.071111 752.071111 0 0 1-115.8144 36.408889 1116.910933 1116.910933 0 0 1-136.6528 22.840889A1445.910756 1445.910756 0 0 1 540.444444 395.855644a1449.5744 1449.5744 0 0 1-154.026666-8.135111z" fill="#3D8FF9" p-id="4390"></path></svg>