<?xml version="1.0" standalone="no"?><!DOCTYPE svg PUBLIC "-//W3C//DTD SVG 1.1//EN" "http://www.w3.org/Graphics/SVG/1.1/DTD/svg11.dtd"><svg t="1728203845917" class="icon" viewBox="0 0 1024 1024" version="1.1" xmlns="http://www.w3.org/2000/svg" p-id="23267" xmlns:xlink="http://www.w3.org/1999/xlink" width="200" height="200"><path d="M500.184615 984.615385c0 23.630769-15.753846 39.384615-39.384615 39.384615H157.538462c-86.646154 0-157.538462-70.892308-157.538462-157.538462V263.876923L263.876923 0H866.461538c86.646154 0 157.538462 70.892308 157.538462 157.538462v303.261538c0 23.630769-15.753846 39.384615-39.384615 39.384615s-39.384615-15.753846-39.384616-39.384615V196.923077c0-66.953846-51.2-118.153846-118.153846-118.153846H287.507692L78.769231 287.507692V827.076923c0 66.953846 51.2 118.153846 118.153846 118.153846h263.876923c19.692308 0 39.384615 15.753846 39.384615 39.384616z" fill="#5060B5" p-id="23268"></path><path d="M240.246154 476.553846h236.307692c19.692308 0 39.384615 15.753846 39.384616 39.384616 0 19.692308-15.753846 39.384615-39.384616 39.384615h-236.307692c-19.692308 0-39.384615-15.753846-39.384616-39.384615s19.692308-39.384615 39.384616-39.384616zM492.307692 236.307692h236.307693c19.692308 0 39.384615 15.753846 39.384615 39.384616 0 19.692308-15.753846 39.384615-39.384615 39.384615h-236.307693c-19.692308 0-39.384615-15.753846-39.384615-39.384615 0-19.692308 15.753846-39.384615 39.384615-39.384616zM287.507692 0v169.353846c0 66.953846-51.2 118.153846-118.153846 118.153846H0v78.769231h208.738462c86.646154 0 157.538462-70.892308 157.538461-157.538461V0h-78.769231z" fill="#5060B5" p-id="23269"></path><path d="M760.123077 448.984615c-19.692308 0-39.384615 15.753846-39.384615 39.384616V984.615385c0 23.630769 15.753846 39.384615 39.384615 39.384615s39.384615-15.753846 39.384615-39.384615V488.369231c0-23.630769-15.753846-39.384615-39.384615-39.384616z" fill="#FC8739" p-id="23270"></path><path d="M760.123077 448.984615c-7.876923 0-19.692308 3.938462-27.569231 11.815385L512 681.353846c-7.876923 7.876923-11.815385 15.753846-11.815385 27.569231 0 11.815385 3.938462 19.692308 11.815385 27.569231 7.876923 7.876923 15.753846 11.815385 27.569231 11.815384s19.692308-3.938462 27.569231-11.815384l220.553846-220.553846c7.876923-7.876923 11.815385-19.692308 11.815384-27.569231s-3.938462-19.692308-11.815384-27.569231c-7.876923-7.876923-15.753846-11.815385-27.569231-11.815385z" fill="#FC8739" p-id="23271"></path><path d="M764.061538 448.984615c-7.876923 0-19.692308 3.938462-27.56923 11.815385-7.876923 7.876923-11.815385 15.753846-11.815385 27.569231s3.938462 19.692308 11.815385 27.569231l220.553846 220.553846c7.876923 7.876923 19.692308 11.815385 27.569231 11.815384s19.692308-3.938462 27.56923-11.815384c7.876923-7.876923 11.815385-19.692308 11.815385-27.569231 0-7.876923-3.938462-19.692308-11.815385-27.569231l-220.553846-220.553846c-7.876923-7.876923-19.692308-11.815385-27.569231-11.815385z" fill="#FC8739" p-id="23272"></path></svg>