<?xml version="1.0" standalone="no"?><!DOCTYPE svg PUBLIC "-//W3C//DTD SVG 1.1//EN" "http://www.w3.org/Graphics/SVG/1.1/DTD/svg11.dtd"><svg t="1731331492045" class="icon" viewBox="0 0 1024 1024" version="1.1" xmlns="http://www.w3.org/2000/svg" p-id="5265" xmlns:xlink="http://www.w3.org/1999/xlink" width="240" height="240"><path d="M911.232 731.434667A292.565333 292.565333 0 0 1 618.666667 1024H179.797333A73.130667 73.130667 0 0 1 106.666667 950.869333V73.130667C106.666667 32.768 139.434667 0 179.797333 0h658.304c40.405333 0 73.130667 32.768 73.130667 73.130667v658.304z m-73.130667 0V73.130667H179.797333v877.738666H618.666667a219.434667 219.434667 0 0 0 219.434666-219.434666z" fill="#1296db" p-id="5266"></path><path d="M495.189333 703.872h58.24c1.749333 14.336 3.797333 27.221333 6.4 38.613333 7.637333 32.768 16.725333 57.045333 27.52 72.277334 10.837333 15.232 21.077333 23.125333 31.018667 23.125333 11.989333 0 21.077333-21.973333 26.922667-65.536l-25.173334-13.781333-1.706666 19.029333c-1.792 16.341333-3.456 24.576-4.992 24.576-2.005333 0-5.333333-4.266667-9.557334-12.501333l-2.133333-4.48c-4.906667-9.472-9.301333-24.533333-13.482667-45.226667l-1.749333-9.173333a191.786667 191.786667 0 0 1-3.84-26.88h55.594667v-29.013334h-57.898667l-1.28-22.954666a1280.256 1280.256 0 0 1-1.066667-40.234667c19.029333-4.693333 35.669333-9.386667 50.005334-14.037333l-16.64-24.32c-36.010667 11.733333-84.565333 21.973333-145.706667 31.061333v186.666667c0 7.594667-4.096 12.842667-12.288 15.488l7.893333 26.026666c22.229333-7.296 41.557333-14.336 58.197334-20.778666l-4.949334-26.325334c-6.442667 3.242667-12.885333 6.144-19.328 9.088v-90.709333z m53.248-85.717333c0.298667 20.181333 1.194667 39.210667 2.346667 56.746666H495.189333v-47.36l27.605334-4.608c8.917333-1.578667 17.493333-3.157333 25.642666-4.778666z m-6.698666 154.197333l-20.778667 14.933333c14.037333 19.882667 25.429333 37.717333 34.218667 53.802667l22.826666-15.786667a402.474667 402.474667 0 0 0-36.266666-52.949333z m-105.941334-203.349333l27.818667 13.184c-7.04 21.333333-15.786667 41.813333-26.922667 61.44v198.058666h-29.866666v-153.6c-7.893333 9.941333-16.384 19.626667-25.173334 28.970667l-9.898666-32.213333a319.786667 319.786667 0 0 0 64.042666-115.84z" fill="#1296db" p-id="5267"></path><path d="M399.232 146.304m36.565333 0l146.304 0q36.565333 0 36.565334 36.565333l0 0q0 36.565333-36.565334 36.565334l-146.304 0q-36.565333 0-36.565333-36.565334l0 0q0-36.565333 36.565333-36.565333Z" fill="#1296db" p-id="5268"></path><path d="M252.970667 292.565333m36.565333 0l438.869333 0q36.565333 0 36.565334 36.565334l0 0q0 36.565333-36.565334 36.565333l-438.869333 0q-36.565333 0-36.565333-36.565333l0 0q0-36.565333 36.565333-36.565334Z" fill="#1296db" p-id="5269"></path><path d="M252.970667 438.869333m36.565333 0l438.869333 0q36.565333 0 36.565334 36.565334l0 0q0 36.565333-36.565334 36.565333l-438.869333 0q-36.565333 0-36.565333-36.565333l0 0q0-36.565333 36.565333-36.565334Z" fill="#1296db" p-id="5270"></path></svg>