<?xml version="1.0" standalone="no"?><!DOCTYPE svg PUBLIC "-//W3C//DTD SVG 1.1//EN" "http://www.w3.org/Graphics/SVG/1.1/DTD/svg11.dtd"><svg t="1728203092953" class="icon" viewBox="0 0 1024 1024" version="1.1" xmlns="http://www.w3.org/2000/svg" p-id="8455" xmlns:xlink="http://www.w3.org/1999/xlink" width="200" height="200"><path d="M989.013333 576a31.786667 31.786667 0 0 0 0-5.76v-2.133333a32 32 0 0 0-2.773333-6.826667 31.786667 31.786667 0 0 0-4.48-5.973333l-1.493333-1.28a31.36 31.36 0 0 0-4.693334-3.626667l-206.933333-119.466667V190.72v-1.28a31.786667 31.786667 0 0 0 0-5.76v-2.133333a31.786667 31.786667 0 0 0-2.986667-6.826667 31.786667 31.786667 0 0 0-4.693333-5.973333l-1.493333-1.28a31.573333 31.573333 0 0 0-4.693334-3.626667l-222.08-128a32 32 0 0 0-32 0l-222.08 128a32 32 0 0 0-4.693333 3.626667l-1.493333 1.28a32 32 0 0 0-4.48 5.973333 32 32 0 0 0-2.773334 6.826667v2.133333a31.786667 31.786667 0 0 0 0 5.76v240l-206.933333 119.466667a31.573333 31.573333 0 0 0-4.693333 3.626666l-9.813334 2.133334a31.786667 31.786667 0 0 0-4.693333 5.973333 31.786667 31.786667 0 0 0-2.986667 6.826667v2.133333a31.786667 31.786667 0 0 0 0 5.76v257.28a32 32 0 0 0 16 27.733333l222.08 128h1.066667l5.333333 2.346667h1.92a29.226667 29.226667 0 0 0 14.933334 0h1.92l5.333333-2.346667h1.066667l206.933333-119.466666 206.933333 119.466666h1.066667l5.333333 2.346667h1.92a29.226667 29.226667 0 0 0 14.933334 0h1.92l5.333333-2.346667h1.066667l222.08-128a32 32 0 0 0 16-27.733333V576h-0.213334z m-254.08 92.16L576 576l158.08-91.306667L893.013333 576z m-445.866666 0L130.986667 576l158.08-91.306667L448 576z m192-330.666667v182.613334l-159.146667-91.306667v-182.613333z m221.226666 91.306667l-158.293333 91.306667v-182.613334l158.08-91.306666zM512 99.413333l158.08 91.306667L512 282.026667l-158.08-91.306667z m-413.226667 533.333334L256 723.413333v182.613334l-157.013333-91.306667zM320 906.026667v-182.613334l158.08-91.306666v182.613333z m224.853333-273.92l158.08 91.306666v182.613334l-158.08-91.306667z m222.08 273.92v-182.613334l158.08-91.306666v182.613333z" fill="#1296db" p-id="8456"></path></svg>