<?xml version="1.0" standalone="no"?><!DOCTYPE svg PUBLIC "-//W3C//DTD SVG 1.1//EN" "http://www.w3.org/Graphics/SVG/1.1/DTD/svg11.dtd"><svg t="1728203204906" class="icon" viewBox="0 0 1024 1024" version="1.1" xmlns="http://www.w3.org/2000/svg" p-id="13998" xmlns:xlink="http://www.w3.org/1999/xlink" width="200" height="200"><path d="M874.56256 959.98976H149.45792l-85.44768-342.31808 85.03808-369.19296h205.0816v52.7104H190.9248l-66.7904 289.88928h216.89344l78.94016 105.40032h184.13056l78.91456-105.40032h216.86784l-66.816-289.88928h-163.23072V248.47872h205.1072l85.03808 369.19296-85.41696 342.31808z m-165.26848-316.22144l-78.94016 105.40032H393.61536L314.6752 643.76832H124.75392l65.78688 263.53152h642.88768l65.78688-263.53152h-189.92128z m47.4368-237.15328l-244.72064 163.43552L267.264 406.61504h113.22368V64.01024h263.04512v342.59968h113.19808z m-165.80608-289.88928H433.09568v337.27488l78.91456 52.68992 78.91456-52.68992V116.72576z" fill="#389BFF" p-id="13999"></path></svg>