<svg t="1720335181717" class="icon" viewBox="0 0 1024 1024" version="1.1" xmlns="http://www.w3.org/2000/svg" p-id="8150" width="240" height="240"><path d="M597.381973 746.666667c-23.466667 0-42.666667 19.2-42.666666 42.666666v42.666667c0 23.466667 19.2 42.666667 42.666666 42.666667h42.666667c23.466667 0 42.666667-19.2 42.666667-42.666667v-42.666667c0-23.466667-19.2-42.666667-42.666667-42.666666h-42.666667z m-170.666666-213.333334c-23.466667 0-42.666667 19.2-42.666667 42.666667v42.666667c0 23.466667 19.2 42.666667 42.666667 42.666666h42.666666c23.466667 0 42.666667-19.2 42.666667-42.666666v-42.666667c0-23.466667-19.2-42.666667-42.666667-42.666667h-42.666666z m0 213.333334c-23.466667 0-42.666667 19.2-42.666667 42.666666v42.666667c0 23.466667 19.2 42.666667 42.666667 42.666667h42.666666c23.466667 0 42.666667-19.2 42.666667-42.666667v-42.666667c0-23.466667-19.2-42.666667-42.666667-42.666666h-42.666666z m-170.666667 0c-23.466667 0-42.666667 19.2-42.666667 42.666666v42.666667c0 23.466667 19.2 42.666667 42.666667 42.666667h42.666667c23.466667 0 42.666667-19.2 42.666666-42.666667v-42.666667c0-23.466667-19.2-42.666667-42.666666-42.666666H256.04864z m0-213.333334c-23.466667 0-42.666667 19.2-42.666667 42.666667v42.666667c0 23.466667 19.2 42.666667 42.666667 42.666666h42.666667c23.466667 0 42.666667-19.2 42.666666-42.666666v-42.666667c0-23.466667-19.2-42.666667-42.666666-42.666667H256.04864z m-106.24-97.706666l341.333333-189.44c12.8-7.253333 28.586667-7.253333 41.386667 0l341.333333 189.44c13.653333 7.68 22.186667 22.186667 22.186667 37.546666V917.333333c0 23.466667-19.2 42.666667-42.666667 42.666667H170.715307c-23.466667 0-42.666667-19.2-42.666667-42.666667V473.173333c0-15.36 8.533333-29.866667 21.76-37.546666z" fill="#1296db" p-id="8151"></path><path d="M981.381973 405.333333c-6.826667 0-14.08-1.706667-20.48-5.12L512.04864 155.306667 63.195307 400.213333a42.453333 42.453333 0 0 1-58.026667-17.066666c-11.093333-20.48-3.84-46.506667 17.066667-58.026667l469.333333-256c12.8-6.826667 28.16-6.826667 40.96 0l469.333333 256A42.709333 42.709333 0 0 1 981.381973 405.333333z" fill="#1296db" p-id="8152"></path></svg>