<svg t="1720335244780" class="icon" viewBox="0 0 1024 1024" version="1.1" xmlns="http://www.w3.org/2000/svg" p-id="8329" width="240" height="240"><path d="M1004.031283 302.592515c11.99542 20.041129 17.99313 44.105111 19.967986 70.14395V877.71439c-1.974856 42.057113-16.018274 76.14166-44.031969 102.180499-27.940551 28.086837-61.951956 42.130256-101.96107 44.105111H145.993039c-41.98397-1.974856-75.995374-16.091417-101.96107-44.105111C16.018274 951.881194 1.974856 917.723504 0 877.71439V374.711321c0-26.038839 5.99771-50.102821 19.967986-70.14395a232.703834 232.703834 0 0 1 54.052533-54.125676L440.027114 22.089859A140.324471 140.324471 0 0 1 516.022489 0.000731c27.940551 0 53.97939 8.045709 75.995374 22.015985L958.024459 250.514838c17.99313 13.970276 33.938261 32.036549 46.006824 52.077677zM218.989558 461.897544a36.571402 36.571402 0 0 0 0 73.142805H772.38802a36.571402 36.571402 0 0 0 28.525694-59.391957l-86.527939-108.98278a36.534831 36.534831 0 0 0-57.12453 45.567968l39.423972 49.663964H218.989558z m553.398462 246.491253a36.571402 36.571402 0 0 0 0-73.142805H219.062701a36.571402 36.571402 0 0 0-28.525694 59.391958l86.527938 108.982779a36.49826 36.49826 0 1 0 57.051388-45.567968L294.765504 708.46194h477.622516v-0.073143z" fill="#9254DE" p-id="8330"></path></svg>