<?xml version="1.0" standalone="no"?><!DOCTYPE svg PUBLIC "-//W3C//DTD SVG 1.1//EN" "http://www.w3.org/Graphics/SVG/1.1/DTD/svg11.dtd"><svg t="1731332127300" class="icon" viewBox="0 0 1024 1024" version="1.1" xmlns="http://www.w3.org/2000/svg" p-id="15606" xmlns:xlink="http://www.w3.org/1999/xlink" width="240" height="240"><path d="M681.946114 687.008944l0.113772-91.813566s-120.483973 152.453753-120.483974 214.345425C561.575912 871.37559 682.059886 1023.943114 682.059886 1023.943114l-0.113772-91.586023h120.25643a82.996278 82.996278 0 0 0 72.813733-42.664296L1023.943114 624.662185a120.939059 120.939059 0 0 1-105.978112 62.289873h-236.075774 0.056886z m68.149103-612.943725a95.397367 95.397367 0 0 0-82.484306-49.035498c-33.96078 0-65.475474 19.113605-82.142993 49.490583 0 0-27.70335 48.978612-55.577356 98.810511l56.203099 99.834454-78.160991 44.939725s188.860619 30.945836 241.19549-0.113771c52.107327-30.888951 120.597745-214.345425 120.597744-214.345426l-77.364591 46.020555s-30.149436-54.155214-42.266096-75.658019z" fill="#00A3FF" p-id="15607"></path><path d="M1004.089995 612.374868c17.065719-30.490751 16.838176-67.637131-0.455086-97.900339l-107.172712-190.567191-206.893395 122.702517 120.597744 214.345425h111.040942a94.316538 94.316538 0 0 0 82.882507-48.580412zM284.314871 562.486084l77.364591 46.020555s-68.262874-183.51336-120.597744-214.402311c-52.164213-30.888951-241.081718 0-241.081718 0l77.535248 45.67924L17.350147 546.842509a87.319593 87.319593 0 0 0-0.455086 86.011221l148.926838 264.916838a127.992889 127.992889 0 0 1 0.511971-125.376145l117.981001-209.908339z" fill="#00A3FF" p-id="15608"></path><path d="M186.243875 886.279651c17.008833 30.320093 48.751069 48.921727 82.71185 48.694184h214.459196v-245.291262H242.105661c-27.874007 49.718127-55.520471 98.810511-55.634243 98.924282a99.322482 99.322482 0 0 0-0.227543 97.61591zM172.648186 266.452753l207.632909 123.100716s155.866896-277.488584 184.252875-327.661796C586.321204 23.323149 624.832843 0 668.350425 0H370.439864c-31.002722 0-57.227043 17.919004-72.301761 43.233154-26.338092 43.915782-125.489917 223.276485-125.489917 223.276484z" fill="#00A3FF" p-id="15609"></path></svg>