<?xml version="1.0" standalone="no"?><!DOCTYPE svg PUBLIC "-//W3C//DTD SVG 1.1//EN" "http://www.w3.org/Graphics/SVG/1.1/DTD/svg11.dtd"><svg t="1731335454281" class="icon" viewBox="0 0 1024 1024" version="1.1" xmlns="http://www.w3.org/2000/svg" p-id="25115" xmlns:xlink="http://www.w3.org/1999/xlink" width="240" height="240"><path d="M154.112 897.536h214.016v-342.528H154.112v342.528zM411.136 983.04H111.104c-23.552 0-43.008-18.944-43.008-43.008V512c0-23.552 18.944-43.008 43.008-43.008h299.52c23.552 0 43.008 18.944 43.008 43.008v428.032c0 24.064-18.944 43.008-42.496 43.008zM924.672 40.96c23.552 0 43.008 18.944 43.008 43.008V512c0 23.552-18.944 43.008-43.008 43.008h-299.52c-23.552 0-43.008-18.944-43.008-43.008V83.968c0-23.552 18.944-43.008 43.008-43.008h299.52zM543.744 953.344l-4.096-85.504c161.28-8.704 300.032-116.224 348.16-270.336l83.968 12.8v236.544H885.76v-67.584c-84.48 103.936-208.384 166.912-342.016 174.08zM151.04 419.328l-82.944-15.36V190.976H153.6v58.368c88.064-102.912 218.624-165.376 358.4-165.376v85.504c-160.256 0.512-304.128 99.84-360.96 249.856z" p-id="25116" fill="#1296db"></path></svg>