<?xml version="1.0" standalone="no"?><!DOCTYPE svg PUBLIC "-//W3C//DTD SVG 1.1//EN" "http://www.w3.org/Graphics/SVG/1.1/DTD/svg11.dtd"><svg t="1728289500268" class="icon" viewBox="0 0 1024 1024" version="1.1" xmlns="http://www.w3.org/2000/svg" p-id="5635" xmlns:xlink="http://www.w3.org/1999/xlink" width="200" height="200"><path d="M513.599645 1023.99754q-12.75972 0-25.629438-0.589987c-131.667112-6.089866-254.484418-61.99864-345.842414-157.406548A509.628822 509.628822 0 0 1 0.00091 511.958771a31.999298 31.999298 0 1 1 63.998596 0 447.990174 447.990174 0 0 0 426.930636 447.510184c65.758558 2.999934 129.197166-7.139843 188.555864-30.239336a437.990393 437.990393 0 0 0 249.774522-249.774522c23.109493-59.358698 33.27927-122.797307 30.239337-188.555864-10.529769-227.785004-190.665818-409.88101-415.440888-425.790661l0.229995 125.897239a31.999298 31.999298 0 0 1-31.9393 32.059296h-0.059998a31.999298 31.999298 0 0 1-31.999298-31.939299l-0.289994-154.066621a37.219184 37.219184 0 0 1 10.93976-26.329422 36.669196 36.669196 0 0 1 25.99943-10.719765h0.389991c271.27405 2.779939 493.569174 217.105238 506.0889 487.989296 3.459924 74.738361-8.159821 146.996776-34.529243 214.725291a501.98899 501.98899 0 0 1-286.193723 286.193722 518.608625 518.608625 0 0 1-189.095852 35.079231z" p-id="5636" fill="#1296db"></path><path d="M602.687691 420.560776a128.357185 128.357185 0 0 1-181.496019 181.516018c-50.1289-50.1289-229.184973-410.990985-229.184973-410.990985S552.55879 370.431875 602.687691 420.560776z" p-id="5637" fill="#1296db"></path></svg>